<svg xmlns="http://www.w3.org/2000/svg" xmlns:xlink="http://www.w3.org/1999/xlink" width="820" height="291.869" viewBox="0 0 820 291.869">
  <defs>
    <clipPath id="clip-path">
      <rect id="Rect치ngulo_5174" data-name="Rect치ngulo 5174" width="505" height="257.737" fill="none"/>
    </clipPath>
    <clipPath id="clip-path-2">
      <rect id="Rect치ngulo_5441" data-name="Rect치ngulo 5441" width="440.648" height="192.156" fill="none"/>
    </clipPath>
  </defs>
  <g id="Grupo_78497" data-name="Grupo 78497" transform="translate(-390 -1186)">
    <g id="Grupo_78307" data-name="Grupo 78307" transform="translate(549 1220.132)">
      <g id="Grupo_78306" data-name="Grupo 78306" clip-path="url(#clip-path)">
        <path id="Trazado_100625" data-name="Trazado 100625" d="M252.5,0C113.049,0,0,113.047,0,252.5H505C505,113.047,391.951,0,252.5,0" fill="#f6d4b9"/>
        <path id="Trazado_100626" data-name="Trazado 100626" d="M339.876,34.46l-142.591,208.4h252.5A252.214,252.214,0,0,0,339.876,34.46" transform="translate(55.215 9.644)" fill="#d3c8c8"/>
        <path id="Trazado_100627" data-name="Trazado 100627" d="M0,242.856H252.5L109.909,34.46A252.217,252.217,0,0,0,0,242.856" transform="translate(0 9.644)" fill="#d8e1ca"/>
        <path id="Trazado_100628" data-name="Trazado 100628" d="M248.48,125.864A126.708,126.708,0,0,0,121.772,252.572H375.188A126.708,126.708,0,0,0,248.48,125.864" transform="translate(4.478 0.157)" fill="#fff"/>
      </g>
    </g>
    <circle id="Elipse_4053" data-name="Elipse 4053" cx="41.5" cy="41.5" r="41.5" transform="translate(970 1314)" fill="#d3c8c8"/>
    <circle id="Elipse_4058" data-name="Elipse 4058" cx="41.5" cy="41.5" r="41.5" transform="translate(548 1314)" fill="#d8e1ca"/>
    <circle id="Elipse_4060" data-name="Elipse 4060" cx="42.5" cy="42.5" r="42.5" transform="translate(758 1186)" fill="#f6d4b9"/>
    <circle id="Elipse_4056" data-name="Elipse 4056" cx="35" cy="35" r="35" transform="translate(976 1320)" fill="#fff"/>
    <circle id="Elipse_4057" data-name="Elipse 4057" cx="35" cy="35" r="35" transform="translate(554 1320)" fill="#fff"/>
    <circle id="Elipse_4059" data-name="Elipse 4059" cx="36" cy="36" r="36" transform="translate(764 1192)" fill="#fff"/>
    <path id="Trazado_100629" data-name="Trazado 100629" d="M-6994.052-10228.624h281.4" transform="translate(7922.648 11701)" fill="none" stroke="#707070" stroke-width="1"/>
    <path id="Trazado_100630" data-name="Trazado 100630" d="M-6994.053-10228.624h285.2" transform="translate(7384.052 11701)" fill="none" stroke="#707070" stroke-width="1"/>
  </g>
</svg>
