<svg xmlns="http://www.w3.org/2000/svg" xmlns:xlink="http://www.w3.org/1999/xlink" width="820" height="291.869" viewBox="0 0 820 291.869">
  <defs>
    <clipPath id="clip-path">
      <rect id="Rectángulo_5174" data-name="Rectángulo 5174" width="505" height="257.737" fill="none"/>
    </clipPath>
    <clipPath id="clip-path-2">
      <rect id="Rectángulo_5441" data-name="Rectángulo 5441" width="440.648" height="192.156" fill="none"/>
    </clipPath>
  </defs>
  <g id="Grupo_78907" data-name="Grupo 78907" transform="translate(-390 -6280)">
    <g id="Grupo_78538" data-name="Grupo 78538">
      <g id="Grupo_78497" data-name="Grupo 78497" transform="translate(0 5094)">
        <g id="Grupo_78307" data-name="Grupo 78307" transform="translate(549 1220.132)">
          <g id="Grupo_78306" data-name="Grupo 78306" clip-path="url(#clip-path)">
            <path id="Trazado_100625" data-name="Trazado 100625" d="M252.5,0C113.049,0,0,113.047,0,252.5H505C505,113.047,391.951,0,252.5,0" fill="#f6d4b9"/>
            <path id="Trazado_100626" data-name="Trazado 100626" d="M339.876,34.46l-142.591,208.4h252.5A252.214,252.214,0,0,0,339.876,34.46" transform="translate(55.215 9.644)" fill="#d3c8c8"/>
            <path id="Trazado_100627" data-name="Trazado 100627" d="M0,242.856H252.5L109.909,34.46A252.217,252.217,0,0,0,0,242.856" transform="translate(0 9.644)" fill="#d8e1ca"/>
            <path id="Trazado_100628" data-name="Trazado 100628" d="M248.48,125.864A126.708,126.708,0,0,0,121.772,252.572H375.188A126.708,126.708,0,0,0,248.48,125.864" transform="translate(4.478 0.157)" fill="#fff"/>
          </g>
        </g>
        <circle id="Elipse_4053" data-name="Elipse 4053" cx="41.5" cy="41.5" r="41.5" transform="translate(970 1314)" fill="#d3c8c8"/>
        <circle id="Elipse_4058" data-name="Elipse 4058" cx="41.5" cy="41.5" r="41.5" transform="translate(548 1314)" fill="#d8e1ca"/>
        <circle id="Elipse_4060" data-name="Elipse 4060" cx="42.5" cy="42.5" r="42.5" transform="translate(758 1186)" fill="#f6d4b9"/>
        <circle id="Elipse_4056" data-name="Elipse 4056" cx="35" cy="35" r="35" transform="translate(976 1320)" fill="#fff"/>
        <circle id="Elipse_4057" data-name="Elipse 4057" cx="35" cy="35" r="35" transform="translate(554 1320)" fill="#fff"/>
        <circle id="Elipse_4059" data-name="Elipse 4059" cx="36" cy="36" r="36" transform="translate(764 1192)" fill="#fff"/>
        <path id="Trazado_100629" data-name="Trazado 100629" d="M-6994.052-10228.624h281.4" transform="translate(7922.648 11701)" fill="none" stroke="#707070" stroke-width="1"/>
        <path id="Trazado_100630" data-name="Trazado 100630" d="M-6994.053-10228.624h285.2" transform="translate(7384.052 11701)" fill="none" stroke="#707070" stroke-width="1"/>
      </g>
      <path id="Trazado_160859" data-name="Trazado 160859" d="M6.532,5.914l3.1,8.766,3.088-8.766h3.271V18H13.5V14.7l.249-5.7L10.483,18H8.773L5.519,9,5.768,14.7V18H3.278V5.914ZM22.146,18.166a4.409,4.409,0,0,1-3.217-1.212,4.308,4.308,0,0,1-1.241-3.229v-.232a5.426,5.426,0,0,1,.523-2.42,3.838,3.838,0,0,1,1.482-1.644,4.159,4.159,0,0,1,2.187-.577,3.727,3.727,0,0,1,2.9,1.162,4.722,4.722,0,0,1,1.058,3.3v.979H20.12a2.229,2.229,0,0,0,.7,1.411,2.12,2.12,0,0,0,1.482.531,2.589,2.589,0,0,0,2.167-1l1.179,1.32a3.6,3.6,0,0,1-1.461,1.191A4.793,4.793,0,0,1,22.146,18.166Zm-.274-7.379a1.5,1.5,0,0,0-1.158.484,2.5,2.5,0,0,0-.569,1.384h3.337v-.192a1.786,1.786,0,0,0-.432-1.238A1.547,1.547,0,0,0,21.872,10.787Zm4.956,2.656a5.413,5.413,0,0,1,.942-3.345,3.057,3.057,0,0,1,2.577-1.245,2.751,2.751,0,0,1,2.167.979V5.25H34.92V18H32.754l-.116-.955a2.823,2.823,0,0,1-2.308,1.121,3.049,3.049,0,0,1-2.544-1.249A5.587,5.587,0,0,1,26.827,13.443Zm2.4.179a3.546,3.546,0,0,0,.44,1.937,1.433,1.433,0,0,0,1.278.673,1.605,1.605,0,0,0,1.569-.939v-3.55a1.582,1.582,0,0,0-1.552-.939Q29.226,10.8,29.226,13.621ZM39.312,18H36.9V9.019h2.407ZM36.763,6.694a1.181,1.181,0,0,1,.361-.888,1.556,1.556,0,0,1,1.963,0,1.175,1.175,0,0,1,.365.888,1.178,1.178,0,0,1-.369.9,1.539,1.539,0,0,1-1.951,0A1.178,1.178,0,0,1,36.763,6.694Zm4.15,6.749a5.413,5.413,0,0,1,.942-3.345,3.057,3.057,0,0,1,2.577-1.245,2.751,2.751,0,0,1,2.167.979V5.25h2.407V18H46.84l-.116-.955a2.823,2.823,0,0,1-2.308,1.121,3.049,3.049,0,0,1-2.544-1.249A5.587,5.587,0,0,1,40.914,13.443Zm2.4.179a3.546,3.546,0,0,0,.44,1.937,1.433,1.433,0,0,0,1.278.673,1.605,1.605,0,0,0,1.569-.939v-3.55a1.582,1.582,0,0,0-1.552-.939Q43.313,10.8,43.313,13.621ZM56.071,18a2.664,2.664,0,0,1-.241-.805,2.9,2.9,0,0,1-2.266.971,3.189,3.189,0,0,1-2.187-.764,2.456,2.456,0,0,1-.867-1.926,2.538,2.538,0,0,1,1.058-2.191,5.222,5.222,0,0,1,3.059-.772h1.1V12a1.48,1.48,0,0,0-.32-1,1.257,1.257,0,0,0-1.009-.374,1.429,1.429,0,0,0-.95.291.987.987,0,0,0-.344.8h-2.4a2.41,2.41,0,0,1,.481-1.444A3.182,3.182,0,0,1,52.551,9.23a4.961,4.961,0,0,1,1.976-.378,3.92,3.92,0,0,1,2.635.834,2.918,2.918,0,0,1,.975,2.345v3.893a4.294,4.294,0,0,0,.357,1.934V18Zm-1.984-1.668a2.066,2.066,0,0,0,.979-.237,1.554,1.554,0,0,0,.664-.635V13.916h-.9q-1.8,0-1.917,1.245l-.008.141a.96.96,0,0,0,.315.739A1.225,1.225,0,0,0,54.087,16.332Zm10.758-.813a.773.773,0,0,0-.436-.693,4.95,4.95,0,0,0-1.4-.452q-3.2-.672-3.2-2.723a2.468,2.468,0,0,1,.992-2,4,4,0,0,1,2.594-.8,4.307,4.307,0,0,1,2.735.805,2.538,2.538,0,0,1,1.025,2.092h-2.4a1.161,1.161,0,0,0-.332-.851,1.405,1.405,0,0,0-1.038-.336,1.436,1.436,0,0,0-.938.274.865.865,0,0,0-.332.7.739.739,0,0,0,.378.643,3.885,3.885,0,0,0,1.274.423,10.407,10.407,0,0,1,1.511.4,2.482,2.482,0,0,1,1.9,2.416,2.343,2.343,0,0,1-1.054,1.988,4.548,4.548,0,0,1-2.723.76,4.75,4.75,0,0,1-2-.4,3.363,3.363,0,0,1-1.374-1.1,2.565,2.565,0,0,1-.5-1.515H61.8a1.252,1.252,0,0,0,.473.979,1.877,1.877,0,0,0,1.179.34,1.737,1.737,0,0,0,1.042-.261A.814.814,0,0,0,64.845,15.518Zm7.736-2.075a5.413,5.413,0,0,1,.942-3.345A3.057,3.057,0,0,1,76.1,8.853a2.751,2.751,0,0,1,2.167.979V5.25h2.407V18H78.508l-.116-.955a2.823,2.823,0,0,1-2.308,1.121,3.049,3.049,0,0,1-2.544-1.249A5.587,5.587,0,0,1,72.581,13.443Zm2.4.179a3.546,3.546,0,0,0,.44,1.937,1.433,1.433,0,0,0,1.278.673,1.605,1.605,0,0,0,1.569-.939v-3.55a1.582,1.582,0,0,0-1.552-.939Q74.98,10.8,74.98,13.621Zm11.688,4.545a4.409,4.409,0,0,1-3.217-1.212,4.308,4.308,0,0,1-1.241-3.229v-.232a5.426,5.426,0,0,1,.523-2.42,3.838,3.838,0,0,1,1.482-1.644A4.159,4.159,0,0,1,86.4,8.853a3.727,3.727,0,0,1,2.9,1.162,4.722,4.722,0,0,1,1.058,3.3v.979H84.642a2.229,2.229,0,0,0,.7,1.411,2.12,2.12,0,0,0,1.482.531,2.589,2.589,0,0,0,2.167-1l1.179,1.32a3.6,3.6,0,0,1-1.461,1.191A4.793,4.793,0,0,1,86.667,18.166Zm-.274-7.379a1.5,1.5,0,0,0-1.158.484,2.5,2.5,0,0,0-.569,1.384H88v-.192a1.786,1.786,0,0,0-.432-1.238A1.547,1.547,0,0,0,86.394,10.787ZM11.645,31.268a6.517,6.517,0,0,0-.863-.066A1.757,1.757,0,0,0,9,32.123V38H6.6V29.019H8.864l.066,1.071a2.223,2.223,0,0,1,2-1.237,2.514,2.514,0,0,1,.747.108Zm5.288,6.9a4.409,4.409,0,0,1-3.217-1.212,4.308,4.308,0,0,1-1.241-3.229v-.232A5.426,5.426,0,0,1,13,31.073a3.838,3.838,0,0,1,1.482-1.644,4.159,4.159,0,0,1,2.187-.577,3.727,3.727,0,0,1,2.9,1.162,4.722,4.722,0,0,1,1.058,3.3v.979H14.907a2.229,2.229,0,0,0,.7,1.411,2.12,2.12,0,0,0,1.482.531,2.589,2.589,0,0,0,2.167-1l1.179,1.32a3.6,3.6,0,0,1-1.461,1.191A4.793,4.793,0,0,1,16.933,38.166Zm-.274-7.379a1.5,1.5,0,0,0-1.158.484,2.5,2.5,0,0,0-.569,1.384h3.337v-.192a1.786,1.786,0,0,0-.432-1.238A1.547,1.547,0,0,0,16.659,30.787Zm13.414,2.806a5.387,5.387,0,0,1-.942,3.324,3.021,3.021,0,0,1-2.544,1.249,2.8,2.8,0,0,1-2.2-.946v4.233h-2.4V29.019h2.225l.083.88a2.819,2.819,0,0,1,2.274-1.046,3.041,3.041,0,0,1,2.582,1.229,5.532,5.532,0,0,1,.921,3.387Zm-2.4-.174a3.535,3.535,0,0,0-.444-1.934,1.446,1.446,0,0,0-1.291-.681,1.571,1.571,0,0,0-1.552.863v3.677a1.6,1.6,0,0,0,1.569.888Q27.674,36.232,27.674,33.418ZM36.763,38a2.664,2.664,0,0,1-.241-.805,2.9,2.9,0,0,1-2.266.971,3.189,3.189,0,0,1-2.187-.764,2.456,2.456,0,0,1-.867-1.926,2.538,2.538,0,0,1,1.058-2.191,5.222,5.222,0,0,1,3.059-.772h1.1V32a1.48,1.48,0,0,0-.32-1,1.257,1.257,0,0,0-1.009-.374,1.429,1.429,0,0,0-.95.291.987.987,0,0,0-.344.8H31.4a2.41,2.41,0,0,1,.481-1.444,3.182,3.182,0,0,1,1.361-1.042,4.961,4.961,0,0,1,1.976-.378,3.92,3.92,0,0,1,2.635.834,2.918,2.918,0,0,1,.975,2.345v3.893a4.294,4.294,0,0,0,.357,1.934V38Zm-1.984-1.668a2.066,2.066,0,0,0,.979-.237,1.554,1.554,0,0,0,.664-.635V33.916h-.9q-1.8,0-1.917,1.245L33.6,35.3a.96.96,0,0,0,.315.739A1.225,1.225,0,0,0,34.779,36.332Zm10.94-5.063a6.517,6.517,0,0,0-.863-.066,1.757,1.757,0,0,0-1.785.921V38h-2.4V29.019h2.266l.066,1.071a2.223,2.223,0,0,1,2-1.237,2.514,2.514,0,0,1,.747.108ZM51.829,38a2.664,2.664,0,0,1-.241-.805,2.9,2.9,0,0,1-2.266.971,3.189,3.189,0,0,1-2.187-.764,2.456,2.456,0,0,1-.867-1.926,2.538,2.538,0,0,1,1.058-2.191,5.222,5.222,0,0,1,3.059-.772h1.1V32a1.48,1.48,0,0,0-.32-1,1.257,1.257,0,0,0-1.009-.374,1.429,1.429,0,0,0-.95.291.987.987,0,0,0-.344.8h-2.4a2.41,2.41,0,0,1,.481-1.444A3.182,3.182,0,0,1,48.31,29.23a4.961,4.961,0,0,1,1.976-.378,3.92,3.92,0,0,1,2.635.834,2.918,2.918,0,0,1,.975,2.345v3.893a4.294,4.294,0,0,0,.357,1.934V38Zm-1.984-1.668a2.066,2.066,0,0,0,.979-.237,1.554,1.554,0,0,0,.664-.635V33.916h-.9q-1.8,0-1.917,1.245l-.008.141a.96.96,0,0,0,.315.739A1.225,1.225,0,0,0,49.845,36.332Zm9.629-.1a1.573,1.573,0,0,0,1.079-.365,1.28,1.28,0,0,0,.432-.971h2.25a3.077,3.077,0,0,1-.5,1.673A3.286,3.286,0,0,1,61.4,37.747a4.2,4.2,0,0,1-1.88.419,3.9,3.9,0,0,1-3.038-1.224,4.845,4.845,0,0,1-1.112-3.383V33.4a4.79,4.79,0,0,1,1.1-3.312,3.854,3.854,0,0,1,3.03-1.237,3.778,3.778,0,0,1,2.7.959,3.4,3.4,0,0,1,1.033,2.552h-2.25a1.648,1.648,0,0,0-.432-1.139,1.6,1.6,0,0,0-2.362.173,3.541,3.541,0,0,0-.427,1.983v.249a3.586,3.586,0,0,0,.423,2A1.463,1.463,0,0,0,59.474,36.232ZM67.136,38H64.729V29.019h2.407ZM64.587,26.694a1.181,1.181,0,0,1,.361-.888,1.556,1.556,0,0,1,1.963,0,1.268,1.268,0,0,1,0,1.785,1.539,1.539,0,0,1-1.951,0A1.178,1.178,0,0,1,64.587,26.694Zm4.15,6.732a5.326,5.326,0,0,1,.515-2.382,3.768,3.768,0,0,1,1.482-1.619,4.323,4.323,0,0,1,2.245-.573,4.09,4.09,0,0,1,2.968,1.112,4.464,4.464,0,0,1,1.282,3.021l.017.614a4.694,4.694,0,0,1-1.154,3.316,4.472,4.472,0,0,1-6.2,0,4.777,4.777,0,0,1-1.158-3.387Zm2.4.17a3.357,3.357,0,0,0,.481,1.958,1.73,1.73,0,0,0,2.739.008,3.674,3.674,0,0,0,.49-2.141,3.324,3.324,0,0,0-.49-1.945,1.592,1.592,0,0,0-1.378-.69,1.566,1.566,0,0,0-1.361.686A3.736,3.736,0,0,0,71.137,33.6Zm2.316-8.347h2.615l-2.3,2.573H71.817Zm7.479,3.769.075,1.038a3.136,3.136,0,0,1,2.582-1.2,2.606,2.606,0,0,1,2.125.838,3.912,3.912,0,0,1,.714,2.507V38h-2.4V32.256a1.556,1.556,0,0,0-.332-1.108,1.486,1.486,0,0,0-1.1-.344,1.65,1.65,0,0,0-1.519.863V38h-2.4V29.019Z" transform="translate(574 6495.869)" fill="#12263f" stroke="rgba(0,0,0,0)" stroke-width="1"/>
      <text id="_01" data-name="01" transform="translate(649 6475.869)" fill="#a8bc8b" font-size="17" font-family="Roboto-Bold, Roboto" font-weight="700"><tspan x="-9.753" y="18">01</tspan></text>
      <text id="_03" data-name="03" transform="translate(931 6475.869)" fill="#b4a5a5" font-size="17" font-family="Roboto-Bold, Roboto" font-weight="700"><tspan x="-9.753" y="18">03</tspan></text>
      <text id="_02" data-name="02" transform="translate(821.5 6354)" fill="#f1a67e" font-size="17" font-family="Roboto-Bold, Roboto" font-weight="700"><tspan x="-9.753" y="18">02</tspan></text>
      <path id="Trazado_160861" data-name="Trazado 160861" d="M18.532,5.914l3.1,8.766,3.088-8.766h3.271V18H25.5V14.7l.249-5.7L22.483,18h-1.71L17.519,9l.249,5.694V18h-2.49V5.914ZM34.146,18.166a4.409,4.409,0,0,1-3.217-1.212,4.308,4.308,0,0,1-1.241-3.229v-.232a5.426,5.426,0,0,1,.523-2.42,3.838,3.838,0,0,1,1.482-1.644,4.159,4.159,0,0,1,2.187-.577,3.727,3.727,0,0,1,2.9,1.162,4.722,4.722,0,0,1,1.058,3.3v.979H32.12a2.229,2.229,0,0,0,.7,1.411,2.12,2.12,0,0,0,1.482.531,2.589,2.589,0,0,0,2.167-1l1.179,1.32a3.6,3.6,0,0,1-1.461,1.191A4.793,4.793,0,0,1,34.146,18.166Zm-.274-7.379a1.5,1.5,0,0,0-1.158.484,2.5,2.5,0,0,0-.569,1.384h3.337v-.192a1.786,1.786,0,0,0-.432-1.238A1.547,1.547,0,0,0,33.872,10.787Zm4.956,2.656a5.413,5.413,0,0,1,.942-3.345,3.057,3.057,0,0,1,2.577-1.245,2.751,2.751,0,0,1,2.167.979V5.25H46.92V18H44.754l-.116-.955a2.823,2.823,0,0,1-2.308,1.121,3.049,3.049,0,0,1-2.544-1.249A5.587,5.587,0,0,1,38.827,13.443Zm2.4.179a3.546,3.546,0,0,0,.44,1.937,1.433,1.433,0,0,0,1.278.673,1.605,1.605,0,0,0,1.569-.939v-3.55a1.582,1.582,0,0,0-1.552-.939Q41.226,10.8,41.226,13.621ZM51.312,18H48.9V9.019h2.407ZM48.763,6.694a1.181,1.181,0,0,1,.361-.888,1.556,1.556,0,0,1,1.963,0,1.175,1.175,0,0,1,.365.888,1.178,1.178,0,0,1-.369.9,1.539,1.539,0,0,1-1.951,0A1.178,1.178,0,0,1,48.763,6.694Zm4.15,6.749a5.413,5.413,0,0,1,.942-3.345,3.057,3.057,0,0,1,2.577-1.245,2.751,2.751,0,0,1,2.167.979V5.25h2.407V18H58.84l-.116-.955a2.823,2.823,0,0,1-2.308,1.121,3.049,3.049,0,0,1-2.544-1.249A5.587,5.587,0,0,1,52.914,13.443Zm2.4.179a3.546,3.546,0,0,0,.44,1.937,1.433,1.433,0,0,0,1.278.673,1.605,1.605,0,0,0,1.569-.939v-3.55a1.582,1.582,0,0,0-1.552-.939Q55.313,10.8,55.313,13.621ZM68.071,18a2.664,2.664,0,0,1-.241-.805,2.9,2.9,0,0,1-2.266.971,3.189,3.189,0,0,1-2.187-.764,2.456,2.456,0,0,1-.867-1.926,2.538,2.538,0,0,1,1.058-2.191,5.222,5.222,0,0,1,3.059-.772h1.1V12a1.48,1.48,0,0,0-.32-1,1.257,1.257,0,0,0-1.009-.374,1.429,1.429,0,0,0-.95.291.987.987,0,0,0-.344.8h-2.4a2.41,2.41,0,0,1,.481-1.444A3.182,3.182,0,0,1,64.551,9.23a4.961,4.961,0,0,1,1.976-.378,3.92,3.92,0,0,1,2.635.834,2.918,2.918,0,0,1,.975,2.345v3.893a4.294,4.294,0,0,0,.357,1.934V18Zm-1.984-1.668a2.066,2.066,0,0,0,.979-.237,1.554,1.554,0,0,0,.664-.635V13.916h-.9q-1.8,0-1.917,1.245l-.008.141a.96.96,0,0,0,.315.739A1.225,1.225,0,0,0,66.087,16.332Zm10.758-.813a.773.773,0,0,0-.436-.693,4.95,4.95,0,0,0-1.4-.452q-3.2-.672-3.2-2.723a2.468,2.468,0,0,1,.992-2,4,4,0,0,1,2.594-.8,4.307,4.307,0,0,1,2.735.805,2.538,2.538,0,0,1,1.025,2.092h-2.4a1.161,1.161,0,0,0-.332-.851,1.405,1.405,0,0,0-1.038-.336,1.436,1.436,0,0,0-.938.274.865.865,0,0,0-.332.7.739.739,0,0,0,.378.643,3.885,3.885,0,0,0,1.274.423,10.407,10.407,0,0,1,1.511.4,2.482,2.482,0,0,1,1.9,2.416,2.343,2.343,0,0,1-1.054,1.988,4.548,4.548,0,0,1-2.723.76,4.75,4.75,0,0,1-2-.4,3.363,3.363,0,0,1-1.374-1.1,2.565,2.565,0,0,1-.5-1.515H73.8a1.252,1.252,0,0,0,.473.979,1.877,1.877,0,0,0,1.179.34,1.737,1.737,0,0,0,1.042-.261A.814.814,0,0,0,76.845,15.518Zm7.736-2.075a5.413,5.413,0,0,1,.942-3.345A3.057,3.057,0,0,1,88.1,8.853a2.751,2.751,0,0,1,2.167.979V5.25h2.407V18H90.508l-.116-.955a2.823,2.823,0,0,1-2.308,1.121,3.049,3.049,0,0,1-2.544-1.249A5.587,5.587,0,0,1,84.581,13.443Zm2.4.179a3.546,3.546,0,0,0,.44,1.937,1.433,1.433,0,0,0,1.278.673,1.605,1.605,0,0,0,1.569-.939v-3.55a1.582,1.582,0,0,0-1.552-.939Q86.98,10.8,86.98,13.621Zm11.688,4.545a4.409,4.409,0,0,1-3.217-1.212,4.308,4.308,0,0,1-1.241-3.229v-.232a5.426,5.426,0,0,1,.523-2.42,3.838,3.838,0,0,1,1.482-1.644A4.159,4.159,0,0,1,98.4,8.853a3.727,3.727,0,0,1,2.9,1.162,4.722,4.722,0,0,1,1.058,3.3v.979H96.642a2.229,2.229,0,0,0,.7,1.411,2.12,2.12,0,0,0,1.482.531,2.589,2.589,0,0,0,2.167-1l1.179,1.32a3.6,3.6,0,0,1-1.461,1.191A4.793,4.793,0,0,1,98.667,18.166Zm-.274-7.379a1.5,1.5,0,0,0-1.158.484,2.5,2.5,0,0,0-.569,1.384H100v-.192a1.786,1.786,0,0,0-.432-1.238A1.547,1.547,0,0,0,98.394,10.787ZM7.239,36.232a1.573,1.573,0,0,0,1.079-.365,1.28,1.28,0,0,0,.432-.971H11a3.077,3.077,0,0,1-.5,1.673A3.286,3.286,0,0,1,9.16,37.747a4.2,4.2,0,0,1-1.88.419,3.9,3.9,0,0,1-3.038-1.224A4.845,4.845,0,0,1,3.13,33.559V33.4a4.79,4.79,0,0,1,1.1-3.312,3.854,3.854,0,0,1,3.03-1.237,3.778,3.778,0,0,1,2.7.959A3.4,3.4,0,0,1,11,32.364H8.749a1.648,1.648,0,0,0-.432-1.139,1.439,1.439,0,0,0-1.1-.438,1.445,1.445,0,0,0-1.266.611,3.541,3.541,0,0,0-.427,1.983v.249a3.586,3.586,0,0,0,.423,2A1.463,1.463,0,0,0,7.239,36.232Zm4.756-2.806a5.327,5.327,0,0,1,.515-2.382,3.768,3.768,0,0,1,1.482-1.619,4.323,4.323,0,0,1,2.245-.573A4.09,4.09,0,0,1,19.2,29.965a4.464,4.464,0,0,1,1.282,3.021l.017.614a4.694,4.694,0,0,1-1.154,3.316,4.011,4.011,0,0,1-3.1,1.249,4.031,4.031,0,0,1-3.1-1.245,4.777,4.777,0,0,1-1.158-3.387Zm2.4.17a3.357,3.357,0,0,0,.481,1.958,1.73,1.73,0,0,0,2.739.008,3.674,3.674,0,0,0,.49-2.141,3.324,3.324,0,0,0-.49-1.945,1.592,1.592,0,0,0-1.378-.69,1.566,1.566,0,0,0-1.361.686A3.735,3.735,0,0,0,14.394,33.6Zm9.836-4.578.075,1a3.156,3.156,0,0,1,2.582-1.17,2.4,2.4,0,0,1,2.382,1.37,3.084,3.084,0,0,1,2.7-1.37,2.679,2.679,0,0,1,2.175.851,3.911,3.911,0,0,1,.714,2.561V38H32.448V32.272a1.71,1.71,0,0,0-.3-1.116,1.324,1.324,0,0,0-1.054-.353A1.5,1.5,0,0,0,29.6,31.833L29.609,38h-2.4V32.281a1.689,1.689,0,0,0-.307-1.129,1.337,1.337,0,0,0-1.046-.349,1.555,1.555,0,0,0-1.478.847V38h-2.4V29.019Zm20.553,4.574a5.387,5.387,0,0,1-.942,3.324A3.021,3.021,0,0,1,41.3,38.166a2.8,2.8,0,0,1-2.2-.946v4.233H36.7V29.019h2.225l.083.88a2.819,2.819,0,0,1,2.274-1.046,3.041,3.041,0,0,1,2.582,1.229,5.532,5.532,0,0,1,.921,3.387Zm-2.4-.174a3.535,3.535,0,0,0-.444-1.934,1.446,1.446,0,0,0-1.291-.681,1.571,1.571,0,0,0-1.552.863v3.677a1.6,1.6,0,0,0,1.569.888Q42.384,36.232,42.384,33.418ZM50.4,38.166a4.409,4.409,0,0,1-3.217-1.212,4.308,4.308,0,0,1-1.241-3.229v-.232a5.426,5.426,0,0,1,.523-2.42,3.838,3.838,0,0,1,1.482-1.644,4.159,4.159,0,0,1,2.187-.577,3.727,3.727,0,0,1,2.9,1.162,4.722,4.722,0,0,1,1.058,3.3v.979H48.377a2.229,2.229,0,0,0,.7,1.411,2.12,2.12,0,0,0,1.482.531,2.589,2.589,0,0,0,2.167-1l1.179,1.32a3.6,3.6,0,0,1-1.461,1.191A4.793,4.793,0,0,1,50.4,38.166Zm-.274-7.379a1.5,1.5,0,0,0-1.158.484,2.5,2.5,0,0,0-.569,1.384h3.337v-.192a1.786,1.786,0,0,0-.432-1.238A1.547,1.547,0,0,0,50.129,30.787Zm7.537-1.768.075,1.038a3.136,3.136,0,0,1,2.582-1.2,2.606,2.606,0,0,1,2.125.838,3.912,3.912,0,0,1,.714,2.507V38h-2.4V32.256a1.556,1.556,0,0,0-.332-1.108,1.486,1.486,0,0,0-1.1-.344,1.65,1.65,0,0,0-1.519.863V38h-2.4V29.019Zm12.177,6.5a.773.773,0,0,0-.436-.693,4.95,4.95,0,0,0-1.4-.452q-3.2-.672-3.2-2.723a2.468,2.468,0,0,1,.992-2,4,4,0,0,1,2.594-.8,4.307,4.307,0,0,1,2.735.805,2.538,2.538,0,0,1,1.025,2.092h-2.4a1.161,1.161,0,0,0-.332-.851,1.405,1.405,0,0,0-1.038-.336,1.436,1.436,0,0,0-.938.274.865.865,0,0,0-.332.7.739.739,0,0,0,.378.643,3.885,3.885,0,0,0,1.274.423,10.407,10.407,0,0,1,1.511.4,2.482,2.482,0,0,1,1.9,2.416,2.343,2.343,0,0,1-1.054,1.988,4.548,4.548,0,0,1-2.723.76,4.75,4.75,0,0,1-2-.4,3.363,3.363,0,0,1-1.374-1.1,2.565,2.565,0,0,1-.5-1.515H66.8a1.252,1.252,0,0,0,.473.979,1.877,1.877,0,0,0,1.179.34A1.737,1.737,0,0,0,69.49,36.2.814.814,0,0,0,69.843,35.518ZM78.924,38a2.664,2.664,0,0,1-.241-.805,2.9,2.9,0,0,1-2.266.971A3.189,3.189,0,0,1,74.23,37.4a2.456,2.456,0,0,1-.867-1.926,2.538,2.538,0,0,1,1.058-2.191,5.222,5.222,0,0,1,3.059-.772h1.1V32a1.48,1.48,0,0,0-.32-1,1.257,1.257,0,0,0-1.009-.374,1.429,1.429,0,0,0-.95.291.987.987,0,0,0-.344.8h-2.4a2.41,2.41,0,0,1,.481-1.444A3.182,3.182,0,0,1,75.4,29.23a4.961,4.961,0,0,1,1.976-.378,3.92,3.92,0,0,1,2.635.834,2.918,2.918,0,0,1,.975,2.345v3.893a4.294,4.294,0,0,0,.357,1.934V38ZM76.94,36.332a2.066,2.066,0,0,0,.979-.237,1.554,1.554,0,0,0,.664-.635V33.916h-.9q-1.8,0-1.917,1.245l-.008.141a.96.96,0,0,0,.315.739A1.225,1.225,0,0,0,76.94,36.332Zm9.629-.1a1.573,1.573,0,0,0,1.079-.365,1.28,1.28,0,0,0,.432-.971h2.25a3.077,3.077,0,0,1-.5,1.673,3.286,3.286,0,0,1-1.341,1.179,4.2,4.2,0,0,1-1.88.419,3.9,3.9,0,0,1-3.038-1.224,4.845,4.845,0,0,1-1.112-3.383V33.4a4.79,4.79,0,0,1,1.1-3.312,3.854,3.854,0,0,1,3.03-1.237,3.778,3.778,0,0,1,2.7.959,3.4,3.4,0,0,1,1.033,2.552H88.08a1.648,1.648,0,0,0-.432-1.139,1.6,1.6,0,0,0-2.362.173,3.541,3.541,0,0,0-.427,1.983v.249a3.586,3.586,0,0,0,.423,2A1.463,1.463,0,0,0,86.569,36.232ZM94.231,38H91.823V29.019h2.407ZM91.682,26.694a1.181,1.181,0,0,1,.361-.888,1.556,1.556,0,0,1,1.963,0,1.268,1.268,0,0,1,0,1.785,1.539,1.539,0,0,1-1.951,0A1.178,1.178,0,0,1,91.682,26.694Zm4.15,6.732a5.326,5.326,0,0,1,.515-2.382,3.768,3.768,0,0,1,1.482-1.619,4.323,4.323,0,0,1,2.245-.573,4.09,4.09,0,0,1,2.968,1.112,4.464,4.464,0,0,1,1.282,3.021l.017.614a4.694,4.694,0,0,1-1.154,3.316,4.472,4.472,0,0,1-6.2,0,4.777,4.777,0,0,1-1.158-3.387Zm2.4.17a3.357,3.357,0,0,0,.481,1.958,1.73,1.73,0,0,0,2.739.008,3.674,3.674,0,0,0,.49-2.141,3.324,3.324,0,0,0-.49-1.945,1.592,1.592,0,0,0-1.378-.69,1.566,1.566,0,0,0-1.361.686A3.736,3.736,0,0,0,98.232,33.6Zm2.316-8.347h2.615l-2.3,2.573H98.912Zm7.479,3.769.075,1.038a3.136,3.136,0,0,1,2.582-1.2,2.606,2.606,0,0,1,2.125.838,3.912,3.912,0,0,1,.714,2.507V38h-2.4V32.256a1.556,1.556,0,0,0-.332-1.108,1.486,1.486,0,0,0-1.1-.344,1.65,1.65,0,0,0-1.519.863V38h-2.4V29.019Z" transform="translate(928 6495.869)" fill="#12263f"/>
      <path id="Trazado_160860" data-name="Trazado 160860" d="M18.532,5.914l3.1,8.766,3.088-8.766h3.271V18H25.5V14.7l.249-5.7L22.483,18h-1.71L17.519,9l.249,5.694V18h-2.49V5.914ZM34.146,18.166a4.409,4.409,0,0,1-3.217-1.212,4.308,4.308,0,0,1-1.241-3.229v-.232a5.426,5.426,0,0,1,.523-2.42,3.838,3.838,0,0,1,1.482-1.644,4.159,4.159,0,0,1,2.187-.577,3.727,3.727,0,0,1,2.9,1.162,4.722,4.722,0,0,1,1.058,3.3v.979H32.12a2.229,2.229,0,0,0,.7,1.411,2.12,2.12,0,0,0,1.482.531,2.589,2.589,0,0,0,2.167-1l1.179,1.32a3.6,3.6,0,0,1-1.461,1.191A4.793,4.793,0,0,1,34.146,18.166Zm-.274-7.379a1.5,1.5,0,0,0-1.158.484,2.5,2.5,0,0,0-.569,1.384h3.337v-.192a1.786,1.786,0,0,0-.432-1.238A1.547,1.547,0,0,0,33.872,10.787Zm4.956,2.656a5.413,5.413,0,0,1,.942-3.345,3.057,3.057,0,0,1,2.577-1.245,2.751,2.751,0,0,1,2.167.979V5.25H46.92V18H44.754l-.116-.955a2.823,2.823,0,0,1-2.308,1.121,3.049,3.049,0,0,1-2.544-1.249A5.587,5.587,0,0,1,38.827,13.443Zm2.4.179a3.546,3.546,0,0,0,.44,1.937,1.433,1.433,0,0,0,1.278.673,1.605,1.605,0,0,0,1.569-.939v-3.55a1.582,1.582,0,0,0-1.552-.939Q41.226,10.8,41.226,13.621ZM51.312,18H48.9V9.019h2.407ZM48.763,6.694a1.181,1.181,0,0,1,.361-.888,1.556,1.556,0,0,1,1.963,0,1.175,1.175,0,0,1,.365.888,1.178,1.178,0,0,1-.369.9,1.539,1.539,0,0,1-1.951,0A1.178,1.178,0,0,1,48.763,6.694Zm4.15,6.749a5.413,5.413,0,0,1,.942-3.345,3.057,3.057,0,0,1,2.577-1.245,2.751,2.751,0,0,1,2.167.979V5.25h2.407V18H58.84l-.116-.955a2.823,2.823,0,0,1-2.308,1.121,3.049,3.049,0,0,1-2.544-1.249A5.587,5.587,0,0,1,52.914,13.443Zm2.4.179a3.546,3.546,0,0,0,.44,1.937,1.433,1.433,0,0,0,1.278.673,1.605,1.605,0,0,0,1.569-.939v-3.55a1.582,1.582,0,0,0-1.552-.939Q55.313,10.8,55.313,13.621ZM68.071,18a2.664,2.664,0,0,1-.241-.805,2.9,2.9,0,0,1-2.266.971,3.189,3.189,0,0,1-2.187-.764,2.456,2.456,0,0,1-.867-1.926,2.538,2.538,0,0,1,1.058-2.191,5.222,5.222,0,0,1,3.059-.772h1.1V12a1.48,1.48,0,0,0-.32-1,1.257,1.257,0,0,0-1.009-.374,1.429,1.429,0,0,0-.95.291.987.987,0,0,0-.344.8h-2.4a2.41,2.41,0,0,1,.481-1.444A3.182,3.182,0,0,1,64.551,9.23a4.961,4.961,0,0,1,1.976-.378,3.92,3.92,0,0,1,2.635.834,2.918,2.918,0,0,1,.975,2.345v3.893a4.294,4.294,0,0,0,.357,1.934V18Zm-1.984-1.668a2.066,2.066,0,0,0,.979-.237,1.554,1.554,0,0,0,.664-.635V13.916h-.9q-1.8,0-1.917,1.245l-.008.141a.96.96,0,0,0,.315.739A1.225,1.225,0,0,0,66.087,16.332Zm10.758-.813a.773.773,0,0,0-.436-.693,4.95,4.95,0,0,0-1.4-.452q-3.2-.672-3.2-2.723a2.468,2.468,0,0,1,.992-2,4,4,0,0,1,2.594-.8,4.307,4.307,0,0,1,2.735.805,2.538,2.538,0,0,1,1.025,2.092h-2.4a1.161,1.161,0,0,0-.332-.851,1.405,1.405,0,0,0-1.038-.336,1.436,1.436,0,0,0-.938.274.865.865,0,0,0-.332.7.739.739,0,0,0,.378.643,3.885,3.885,0,0,0,1.274.423,10.407,10.407,0,0,1,1.511.4,2.482,2.482,0,0,1,1.9,2.416,2.343,2.343,0,0,1-1.054,1.988,4.548,4.548,0,0,1-2.723.76,4.75,4.75,0,0,1-2-.4,3.363,3.363,0,0,1-1.374-1.1,2.565,2.565,0,0,1-.5-1.515H73.8a1.252,1.252,0,0,0,.473.979,1.877,1.877,0,0,0,1.179.34,1.737,1.737,0,0,0,1.042-.261A.814.814,0,0,0,76.845,15.518Zm7.736-2.075a5.413,5.413,0,0,1,.942-3.345A3.057,3.057,0,0,1,88.1,8.853a2.751,2.751,0,0,1,2.167.979V5.25h2.407V18H90.508l-.116-.955a2.823,2.823,0,0,1-2.308,1.121,3.049,3.049,0,0,1-2.544-1.249A5.587,5.587,0,0,1,84.581,13.443Zm2.4.179a3.546,3.546,0,0,0,.44,1.937,1.433,1.433,0,0,0,1.278.673,1.605,1.605,0,0,0,1.569-.939v-3.55a1.582,1.582,0,0,0-1.552-.939Q86.98,10.8,86.98,13.621Zm11.688,4.545a4.409,4.409,0,0,1-3.217-1.212,4.308,4.308,0,0,1-1.241-3.229v-.232a5.426,5.426,0,0,1,.523-2.42,3.838,3.838,0,0,1,1.482-1.644A4.159,4.159,0,0,1,98.4,8.853a3.727,3.727,0,0,1,2.9,1.162,4.722,4.722,0,0,1,1.058,3.3v.979H96.642a2.229,2.229,0,0,0,.7,1.411,2.12,2.12,0,0,0,1.482.531,2.589,2.589,0,0,0,2.167-1l1.179,1.32a3.6,3.6,0,0,1-1.461,1.191A4.793,4.793,0,0,1,98.667,18.166Zm-.274-7.379a1.5,1.5,0,0,0-1.158.484,2.5,2.5,0,0,0-.569,1.384H100v-.192a1.786,1.786,0,0,0-.432-1.238A1.547,1.547,0,0,0,98.394,10.787ZM21.271,29.019l.075,1a3.156,3.156,0,0,1,2.582-1.17,2.4,2.4,0,0,1,2.382,1.37,3.084,3.084,0,0,1,2.7-1.37,2.679,2.679,0,0,1,2.175.851,3.911,3.911,0,0,1,.714,2.561V38H29.489V32.272a1.71,1.71,0,0,0-.3-1.116,1.324,1.324,0,0,0-1.054-.353,1.5,1.5,0,0,0-1.494,1.029L26.65,38h-2.4V32.281a1.689,1.689,0,0,0-.307-1.129A1.337,1.337,0,0,0,22.9,30.8a1.555,1.555,0,0,0-1.478.847V38h-2.4V29.019Zm15,8.981H33.863V29.019h2.407ZM33.722,26.694a1.181,1.181,0,0,1,.361-.888,1.556,1.556,0,0,1,1.963,0,1.268,1.268,0,0,1,0,1.785,1.539,1.539,0,0,1-1.951,0A1.178,1.178,0,0,1,33.722,26.694Zm7.4.116v2.208h1.536v1.76H41.118v4.482a1.07,1.07,0,0,0,.191.714.959.959,0,0,0,.73.216,3.826,3.826,0,0,0,.706-.058V37.95a4.939,4.939,0,0,1-1.453.216,2.29,2.29,0,0,1-2.573-2.548V30.778H37.408v-1.76h1.312V26.811ZM46.522,38H44.115V29.019h2.407ZM43.974,26.694a1.181,1.181,0,0,1,.361-.888,1.556,1.556,0,0,1,1.963,0,1.268,1.268,0,0,1,0,1.785,1.539,1.539,0,0,1-1.951,0A1.178,1.178,0,0,1,43.974,26.694Zm4.175,6.749a5.264,5.264,0,0,1,.984-3.329,3.187,3.187,0,0,1,2.652-1.262,2.8,2.8,0,0,1,2.3,1.013l.1-.847h2.175V37.7a3.839,3.839,0,0,1-.535,2.05,3.439,3.439,0,0,1-1.507,1.328,5.3,5.3,0,0,1-2.274.457,4.925,4.925,0,0,1-1.926-.394A3.418,3.418,0,0,1,48.7,40.125l1.063-1.461a2.81,2.81,0,0,0,2.175,1,2.057,2.057,0,0,0,1.486-.51,1.915,1.915,0,0,0,.531-1.448v-.481a2.775,2.775,0,0,1-2.183.938A3.179,3.179,0,0,1,49.149,36.9a5.262,5.262,0,0,1-1-3.358Zm2.4.179a3.278,3.278,0,0,0,.49,1.916,1.558,1.558,0,0,0,1.345.694,1.666,1.666,0,0,0,1.569-.823V31.626A1.662,1.662,0,0,0,52.4,30.8a1.568,1.568,0,0,0-1.357.707A3.694,3.694,0,0,0,50.548,33.621ZM63.406,38a2.664,2.664,0,0,1-.241-.805,2.9,2.9,0,0,1-2.266.971,3.189,3.189,0,0,1-2.187-.764,2.456,2.456,0,0,1-.867-1.926A2.538,2.538,0,0,1,58.9,33.285a5.222,5.222,0,0,1,3.059-.772h1.1V32a1.48,1.48,0,0,0-.32-1,1.257,1.257,0,0,0-1.009-.374,1.429,1.429,0,0,0-.95.291.987.987,0,0,0-.344.8h-2.4a2.41,2.41,0,0,1,.481-1.444,3.182,3.182,0,0,1,1.361-1.042,4.961,4.961,0,0,1,1.976-.378,3.92,3.92,0,0,1,2.635.834,2.918,2.918,0,0,1,.975,2.345v3.893a4.294,4.294,0,0,0,.357,1.934V38Zm-1.984-1.668a2.066,2.066,0,0,0,.979-.237,1.554,1.554,0,0,0,.664-.635V33.916h-.9q-1.8,0-1.917,1.245l-.008.141a.96.96,0,0,0,.315.739A1.225,1.225,0,0,0,61.422,36.332Zm9.629-.1a1.573,1.573,0,0,0,1.079-.365,1.28,1.28,0,0,0,.432-.971h2.25a3.077,3.077,0,0,1-.5,1.673,3.286,3.286,0,0,1-1.341,1.179,4.2,4.2,0,0,1-1.88.419,3.9,3.9,0,0,1-3.038-1.224,4.845,4.845,0,0,1-1.112-3.383V33.4a4.79,4.79,0,0,1,1.1-3.312,3.854,3.854,0,0,1,3.03-1.237,3.778,3.778,0,0,1,2.7.959,3.4,3.4,0,0,1,1.033,2.552h-2.25a1.648,1.648,0,0,0-.432-1.139,1.6,1.6,0,0,0-2.362.173,3.541,3.541,0,0,0-.427,1.983v.249a3.586,3.586,0,0,0,.423,2A1.463,1.463,0,0,0,71.051,36.232ZM78.712,38H76.305V29.019h2.407ZM76.164,26.694a1.181,1.181,0,0,1,.361-.888,1.556,1.556,0,0,1,1.963,0,1.268,1.268,0,0,1,0,1.785,1.539,1.539,0,0,1-1.951,0A1.178,1.178,0,0,1,76.164,26.694Zm4.15,6.732a5.326,5.326,0,0,1,.515-2.382,3.768,3.768,0,0,1,1.482-1.619,4.323,4.323,0,0,1,2.245-.573,4.09,4.09,0,0,1,2.968,1.112,4.464,4.464,0,0,1,1.282,3.021l.017.614a4.694,4.694,0,0,1-1.154,3.316,4.472,4.472,0,0,1-6.2,0,4.777,4.777,0,0,1-1.158-3.387Zm2.4.17a3.357,3.357,0,0,0,.481,1.958,1.73,1.73,0,0,0,2.739.008,3.674,3.674,0,0,0,.49-2.141,3.324,3.324,0,0,0-.49-1.945,1.592,1.592,0,0,0-1.378-.69,1.566,1.566,0,0,0-1.361.686A3.736,3.736,0,0,0,82.713,33.6Zm2.316-8.347h2.615l-2.3,2.573H83.394Zm7.479,3.769.075,1.038a3.136,3.136,0,0,1,2.582-1.2,2.606,2.606,0,0,1,2.125.838A3.912,3.912,0,0,1,98,32.2V38H95.6V32.256a1.556,1.556,0,0,0-.332-1.108,1.486,1.486,0,0,0-1.1-.344,1.65,1.65,0,0,0-1.519.863V38h-2.4V29.019Z" transform="translate(741.5 6373.5)" fill="#12263f"/>
      <text id="Medidas_de_control_y_mitigación" data-name="Medidas de control y mitigación" transform="translate(753.5 6490.869)" fill="#a8bc8b" font-size="17" font-family="Roboto-Bold, Roboto" font-weight="700"><tspan x="2.199" y="18">Medidas de </tspan><tspan x="13.235" y="38">control y </tspan><tspan x="6.1" y="58">mitigación</tspan></text>
      <g id="administracion" transform="translate(565.997 6425.935)">
        <g id="Grupo_78508" data-name="Grupo 78508" transform="translate(0 0)">
          <g id="Grupo_78507" data-name="Grupo 78507">
            <g id="Grupo_78506" data-name="Grupo 78506">
              <g id="Grupo_78505" data-name="Grupo 78505">
                <path id="Trazado_157106" data-name="Trazado 157106" d="M45.468,17.842,41.2,16.794c-.2-.553-.434-1.107-.7-1.657l2.224-3.708a1.362,1.362,0,0,0-.205-1.664l-5.78-5.78a1.362,1.362,0,0,0-1.664-.205L31.368,6c-.55-.262-1.1-.494-1.657-.7L28.663,1.037A1.363,1.363,0,0,0,27.34,0H19.165a1.363,1.363,0,0,0-1.323,1.037L16.794,5.308c-.553.2-1.107.434-1.657.7L11.429,3.779a1.362,1.362,0,0,0-1.664.205l-5.78,5.78a1.362,1.362,0,0,0-.205,1.664L6,15.137c-.262.55-.494,1.1-.7,1.657L1.037,17.842A1.363,1.363,0,0,0,0,19.165V27.34a1.363,1.363,0,0,0,1.037,1.323l4.271,1.048c.2.553.434,1.107.7,1.657L3.779,35.076a1.362,1.362,0,0,0,.205,1.664l5.78,5.78a1.362,1.362,0,0,0,1.664.205L15.137,40.5c.55.262,1.1.494,1.657.7L17.8,45.309l.039.159a1.363,1.363,0,0,0,1.323,1.037l4.36-4.36,3.815,4.36a1.363,1.363,0,0,0,1.323-1.037l.039-.159L29.712,41.2c.553-.2,1.107-.434,1.657-.7l3.708,2.224a1.362,1.362,0,0,0,1.664-.205l5.78-5.78a1.362,1.362,0,0,0,.205-1.664L40.5,31.368c.262-.55.494-1.1.7-1.657l4.271-1.048a1.363,1.363,0,0,0,1.037-1.323V19.165a1.363,1.363,0,0,0-1.037-1.323Z" transform="translate(0 0)" fill="#a8bc8b"/>
              </g>
            </g>
          </g>
        </g>
        <path id="Trazado_157107" data-name="Trazado 157107" d="M278.215,17.842l-4.271-1.048c-.2-.553-.434-1.107-.7-1.657l2.224-3.708a1.362,1.362,0,0,0-.205-1.664l-5.78-5.78a1.362,1.362,0,0,0-1.664-.205L264.116,6c-.55-.262-1.1-.494-1.657-.7l-1.048-4.271A1.363,1.363,0,0,0,260.087,0H256V42.418l.272-.272,3.815,4.36a1.363,1.363,0,0,0,1.323-1.037l.039-.159,1.009-4.112c.553-.2,1.107-.434,1.657-.7l3.708,2.224a1.362,1.362,0,0,0,1.664-.205l5.78-5.78a1.362,1.362,0,0,0,.205-1.664l-2.224-3.708c.262-.55.494-1.1.7-1.657l4.271-1.048a1.363,1.363,0,0,0,1.037-1.323V19.165a1.363,1.363,0,0,0-1.037-1.323Z" transform="translate(-232.747)" fill="#537e39"/>
        <g id="Grupo_78510" data-name="Grupo 78510" transform="translate(17.803 31.995)">
          <g id="Grupo_78509" data-name="Grupo 78509">
            <path id="Trazado_157108" data-name="Trazado 157108" d="M205.537,352.25h-8.175A1.362,1.362,0,0,0,196,353.612v11.952l.039.159a1.363,1.363,0,0,0,1.323,1.037h8.175a1.363,1.363,0,0,0,1.323-1.037l.039-.159V353.612A1.362,1.362,0,0,0,205.537,352.25Z" transform="translate(-196 -352.25)" fill="#f6d4b9"/>
          </g>
        </g>
        <path id="Trazado_157109" data-name="Trazado 157109" d="M260.087,352.25H256v14.51h4.087a1.363,1.363,0,0,0,1.323-1.037l.039-.159V353.612A1.362,1.362,0,0,0,260.087,352.25Z" transform="translate(-232.747 -320.255)" fill="#f1a67e"/>
        <g id="Admin_1_" transform="translate(10.991 11.786)">
          <g id="Grupo_78512" data-name="Grupo 78512">
            <g id="Grupo_78511" data-name="Grupo 78511">
              <path id="Trazado_157110" data-name="Trazado 157110" d="M133.262,153.484a12.264,12.264,0,0,1-4.6-23.629,1.363,1.363,0,0,1,1.875,1.262v9.375l2.725,1.817,2.725-1.817v-9.375a1.363,1.363,0,0,1,1.875-1.262,12.262,12.262,0,0,1-4.6,23.629Zm4.087-12.262h0Z" transform="translate(-121 -129.755)" fill="#f6d4b9"/>
            </g>
          </g>
        </g>
        <path id="Trazado_157111" data-name="Trazado 157111" d="M268.262,141.222a12.28,12.28,0,0,0-7.662-11.367,1.363,1.363,0,0,0-1.875,1.262v9.375L256,142.31v11.175A12.276,12.276,0,0,0,268.262,141.222Z" transform="translate(-232.747 -117.97)" fill="#f1a67e"/>
      </g>
      <g id="grafico-de-barras" transform="translate(778.5 6297.066)">
        <rect id="Rectángulo_8135" data-name="Rectángulo 8135" width="43" height="2.24" transform="translate(0 43.425)" fill="#acb3ba"/>
        <rect id="Rectángulo_8136" data-name="Rectángulo 8136" width="6.629" height="16.215" transform="translate(1.792 25.418)" fill="#cdd6e0"/>
        <rect id="Rectángulo_8137" data-name="Rectángulo 8137" width="6.629" height="24.009" transform="translate(10.034 17.625)" fill="#f6d4b9"/>
        <rect id="Rectángulo_8138" data-name="Rectángulo 8138" width="6.629" height="20.335" transform="translate(18.185 21.298)" fill="#afafaf"/>
        <rect id="Rectángulo_8139" data-name="Rectángulo 8139" width="6.629" height="12.631" transform="translate(26.427 28.912)" fill="#f1a67e"/>
        <rect id="Rectángulo_8140" data-name="Rectángulo 8140" width="6.629" height="26.785" transform="translate(34.579 14.758)" fill="#537e39"/>
        <path id="Trazado_157112" data-name="Trazado 157112" d="M63.3,29.008,50.673,16.377,39.654,27.4,38.4,26.142,50.673,13.869,63.3,26.5,73.7,16.109l1.254,1.254Z" transform="translate(-35.175 -9.771)" fill="#cdd6e0"/>
        <g id="Grupo_78513" data-name="Grupo 78513" transform="translate(1.613 3.202)">
          <circle id="Elipse_4067" data-name="Elipse 4067" cx="2.24" cy="2.24" r="2.24" transform="translate(0 11.556)" fill="#40596b"/>
          <circle id="Elipse_4068" data-name="Elipse 4068" cx="2.24" cy="2.24" r="2.24" transform="translate(11.646)" fill="#40596b"/>
          <circle id="Elipse_4069" data-name="Elipse 4069" cx="2.24" cy="2.24" r="2.24" transform="translate(24.188 12.631)" fill="#40596b"/>
          <circle id="Elipse_4070" data-name="Elipse 4070" cx="2.24" cy="2.24" r="2.24" transform="translate(35.296 1.523)" fill="#40596b"/>
        </g>
      </g>
      <g id="equilibrar" transform="translate(986.5 6401.704)">
        <g id="Grupo_78514" data-name="Grupo 78514" transform="translate(37.01 34.894)">
          <path id="Trazado_157113" data-name="Trazado 157113" d="M440.852,155.389a.772.772,0,0,1-.712-.473l-5.265-12.53a.771.771,0,0,1,1.422-.6l5.265,12.53a.772.772,0,0,1-.711,1.07Z" transform="translate(-428.415 -141.316)" fill="#c3c8d1"/>
          <path id="Trazado_157114" data-name="Trazado 157114" d="M371.474,155.389a.772.772,0,0,1-.711-1.07l5.265-12.53a.771.771,0,0,1,1.422.6l-5.265,12.53A.771.771,0,0,1,371.474,155.389Z" transform="translate(-370.703 -141.316)" fill="#c3c8d1"/>
        </g>
        <g id="Grupo_78515" data-name="Grupo 78515" transform="translate(8.87 30.032)">
          <path id="Trazado_157115" data-name="Trazado 157115" d="M103.232,97.014v-.708h0a4.15,4.15,0,0,1-1.835-3.446c0-.031,0-.061,0-.092a40.118,40.118,0,0,0-12.56,3.458,1.539,1.539,0,0,1,.18.723c0,.022,0,.043,0,.064Z" transform="translate(-88.841 -92.753)" fill="#9e6b57"/>
          <path id="Trazado_157116" data-name="Trazado 157116" d="M290.058,96.17a40.089,40.089,0,0,0-12.886-3.558c0,.036,0,.071,0,.107a4.15,4.15,0,0,1-1.833,3.446h0v.708h14.581c0-.022,0-.043,0-.064A1.541,1.541,0,0,1,290.058,96.17Z" transform="translate(-256.721 -92.612)" fill="#9e6b57"/>
        </g>
        <g id="Grupo_78516" data-name="Grupo 78516" transform="translate(8.87 32.27)">
          <path id="Trazado_157117" data-name="Trazado 157117" d="M101.988,115.028H91.817c-1.021.373-2.016.785-2.976,1.236a1.539,1.539,0,0,1,.18.723c0,.022,0,.043,0,.065h14.214v-.708h0A4.178,4.178,0,0,1,101.988,115.028Z" transform="translate(-88.841 -115.028)" fill="#875848"/>
          <path id="Trazado_157118" data-name="Trazado 157118" d="M286.9,115.028H276.586a4.174,4.174,0,0,1-1.244,1.315h0v.708h14.581c0-.022,0-.043,0-.065a1.539,1.539,0,0,1,.139-.638C289.04,115.865,287.983,115.424,286.9,115.028Z" transform="translate(-256.722 -115.028)" fill="#875848"/>
        </g>
        <path id="Trazado_157119" data-name="Trazado 157119" d="M233.242,128.91a4.121,4.121,0,0,1-2.32-.711v26.148h4.641V128.2A4.12,4.12,0,0,1,233.242,128.91Z" transform="translate(-207.868 -94.614)" fill="#ad7b64"/>
        <path id="Trazado_157120" data-name="Trazado 157120" d="M230.922,128.2v26.148h2.114V128.9A4.116,4.116,0,0,1,230.922,128.2Z" transform="translate(-207.868 -94.614)" fill="#9e6b57"/>
        <path id="Trazado_157121" data-name="Trazado 157121" d="M371.629,276.886H366.8a5.1,5.1,0,0,1-5.085-5.086h0a1.006,1.006,0,0,1,1.006-1.006h12.992a1.006,1.006,0,0,1,1.006,1.006h0A5.1,5.1,0,0,1,371.629,276.886Z" transform="translate(-325.598 -222.973)" fill="#f1a67e"/>
        <path id="Trazado_157122" data-name="Trazado 157122" d="M415.951,116.06a2.318,2.318,0,1,1,2.318-2.318A2.321,2.321,0,0,1,415.951,116.06Zm0-3.094a.775.775,0,1,0,.776.776A.776.776,0,0,0,415.951,112.966Z" transform="translate(-372.337 -79.513)" fill="#e4eaf8"/>
        <path id="Trazado_157123" data-name="Trazado 157123" d="M240.553,25.986a4.14,4.14,0,0,1,1.51.284V24.264a1.172,1.172,0,0,0-1.172-1.172h-.675a1.172,1.172,0,0,0-1.172,1.172v2.006A4.139,4.139,0,0,1,240.553,25.986Z" transform="translate(-215.178 -0.001)" fill="#ad7b64"/>
        <path id="Trazado_157124" data-name="Trazado 157124" d="M240.553,24.263a1.172,1.172,0,0,1,.755-1.094,1.167,1.167,0,0,0-.418-.078h-.674a1.172,1.172,0,0,0-1.172,1.172V26.27a4.142,4.142,0,0,1,1.51-.284V24.263Z" transform="translate(-215.178)" fill="#9e6b57"/>
        <path id="Trazado_157125" data-name="Trazado 157125" d="M215.785,51.054a4.256,4.256,0,1,0,4.256,4.256A4.261,4.261,0,0,0,215.785,51.054Z" transform="translate(-190.411 -25.171)" fill="#e4eaf8"/>
        <g id="Grupo_78517" data-name="Grupo 78517" transform="translate(21.118 25.883)">
          <path id="Trazado_157126" data-name="Trazado 157126" d="M213.587,55.309a4.264,4.264,0,0,1,3.228-4.13,4.256,4.256,0,1,0,0,8.26A4.263,4.263,0,0,1,213.587,55.309Z" transform="translate(-211.53 -51.053)" fill="#d8dce5"/>
          <circle id="Elipse_4071" data-name="Elipse 4071" cx="1.51" cy="1.51" r="1.51" transform="translate(2.747 2.747)" fill="#d8dce5"/>
        </g>
        <g id="Grupo_78518" data-name="Grupo 78518" transform="translate(0.898 28.63)">
          <path id="Trazado_157127" data-name="Trazado 157127" d="M241.1,80.077a1.5,1.5,0,0,1,.481-1.1,1.51,1.51,0,1,0,0,2.206A1.5,1.5,0,0,1,241.1,80.077Z" transform="translate(-216.075 -78.567)" fill="#c3c8d1"/>
          <path id="Trazado_157128" data-name="Trazado 157128" d="M79.143,155.389a.772.772,0,0,1-.712-.473l-5.265-12.53a.771.771,0,0,1,1.422-.6l5.265,12.53a.772.772,0,0,1-.711,1.07Z" transform="translate(-66.706 -135.051)" fill="#c3c8d1"/>
          <path id="Trazado_157129" data-name="Trazado 157129" d="M9.765,155.389a.772.772,0,0,1-.711-1.07l5.265-12.53a.771.771,0,0,1,1.422.6l-5.265,12.53A.772.772,0,0,1,9.765,155.389Z" transform="translate(-8.994 -135.052)" fill="#c3c8d1"/>
        </g>
        <path id="Trazado_157130" data-name="Trazado 157130" d="M9.919,276.886H5.085A5.1,5.1,0,0,1,0,271.8H0a1.006,1.006,0,0,1,1.006-1.006H14A1.006,1.006,0,0,1,15,271.8h0A5.1,5.1,0,0,1,9.919,276.886Z" transform="translate(0 -222.973)" fill="#537e39"/>
        <path id="Trazado_157131" data-name="Trazado 157131" d="M363.846,271.8a1.006,1.006,0,0,1,1.006-1.006h-2.137a1.006,1.006,0,0,0-1.006,1.006,5.1,5.1,0,0,0,5.086,5.086h2.137A5.1,5.1,0,0,1,363.846,271.8Z" transform="translate(-325.597 -222.973)" fill="#f6d4b9"/>
        <path id="Trazado_157132" data-name="Trazado 157132" d="M2.137,271.8a1.006,1.006,0,0,1,1.006-1.006H1.006A1.006,1.006,0,0,0,0,271.8a5.1,5.1,0,0,0,5.086,5.086H7.222A5.1,5.1,0,0,1,2.137,271.8Z" transform="translate(0 -222.973)" fill="#a8bc8b"/>
        <path id="Trazado_157133" data-name="Trazado 157133" d="M54.241,116.06a2.318,2.318,0,1,1,2.318-2.318A2.321,2.321,0,0,1,54.241,116.06Zm0-3.094a.775.775,0,1,0,.776.776A.776.776,0,0,0,54.241,112.966Z" transform="translate(-46.739 -79.513)" fill="#e4eaf8"/>
        <path id="Trazado_157134" data-name="Trazado 157134" d="M179.417,388.871h-7.157a5.123,5.123,0,0,0-5.108,5.108v1.011h17.374v-1.011A5.123,5.123,0,0,0,179.417,388.871Z" transform="translate(-150.463 -329.262)" fill="#ad7b64"/>
        <g id="Grupo_78519" data-name="Grupo 78519" transform="translate(15.005 59.609)">
          <path id="Trazado_157135" data-name="Trazado 157135" d="M174.316,388.871h-2.057a5.123,5.123,0,0,0-5.108,5.108v1.011h2.057v-1.011A5.123,5.123,0,0,1,174.316,388.871Z" transform="translate(-165.468 -388.871)" fill="#9e6b57"/>
          <path id="Trazado_157136" data-name="Trazado 157136" d="M169.8,449.887H151.525a1.238,1.238,0,0,0-1.234,1.234v1.427a1.238,1.238,0,0,0,1.234,1.234H169.8a1.238,1.238,0,0,0,1.234-1.234v-1.427A1.238,1.238,0,0,0,169.8,449.887Z" transform="translate(-150.291 -443.795)" fill="#9e6b57"/>
        </g>
        <path id="Trazado_157137" data-name="Trazado 157137" d="M169.8,460.617H151.525a1.239,1.239,0,0,1-1.206-.974,1.223,1.223,0,0,0-.028.26v1.427a1.238,1.238,0,0,0,1.234,1.234H169.8a1.238,1.238,0,0,0,1.234-1.234V459.9a1.23,1.23,0,0,0-.028-.26A1.239,1.239,0,0,1,169.8,460.617Z" transform="translate(-135.286 -392.968)" fill="#875848"/>
      </g>
    </g>
  </g>
</svg>
